{
    "asset" : {
        "generator" : "Khronos glTF Blender I/O v1.3.48",
        "version" : "2.0"
    },
    "scene" : 0,
    "scenes" : [
        {
            "name" : "Scene",
            "nodes" : [
                0,
                1,
                2
            ]
        }
    ],
    "nodes" : [
        {
            "mesh" : 0,
            "name" : "Gun",
            "scale" : [
                -1,
                1,
                1
            ],
            "translation" : [
                0.4667813181877136,
                1.8885287046432495,
                0
            ]
        },
        {
            "mesh" : 1,
            "name" : "Chains",
            "rotation" : [
                0,
                0.7071068286895752,
                0,
                0.7071068286895752
            ],
            "scale" : [
                0.325251966714859,
                0.4464539885520935,
                1.9724359512329102
            ],
            "translation" : [
                0,
                0.6066311001777649,
                0
            ]
        },
        {
            "mesh" : 2,
            "name" : "Body",
            "scale" : [
                2.1815474033355713,
                0.7831587791442871,
                1.6553733348846436
            ],
            "translation" : [
                -0.31937670707702637,
                1.5364080667495728,
                0
            ]
        }
    ],
    "materials" : [
        {
            "doubleSided" : true,
            "emissiveFactor" : [
                0,
                0,
                0
            ],
            "name" : "Material.002",
            "pbrMetallicRoughness" : {
                "baseColorFactor" : [
                    0.5332765579223633,
                    0.05286059156060219,
                    0.03433983027935028,
                    1
                ],
                "metallicFactor" : 0.5,
                "roughnessFactor" : 0.5
            }
        },
        {
            "doubleSided" : true,
            "emissiveFactor" : [
                0,
                0,
                0
            ],
            "name" : "Material",
            "pbrMetallicRoughness" : {
                "baseColorFactor" : [
                    0.03189603611826897,
                    0.0284260381013155,
                    0.020288560539484024,
                    1
                ],
                "metallicFactor" : 0,
                "roughnessFactor" : 0.4000000059604645
            }
        },
        {
            "doubleSided" : true,
            "emissiveFactor" : [
                0,
                0,
                0
            ],
            "name" : "Material.001",
            "pbrMetallicRoughness" : {
                "baseColorFactor" : [
                    0.6239604353904724,
                    0.061246056109666824,
                    0.039546236395835876,
                    1
                ],
                "metallicFactor" : 0.3499999940395355,
                "roughnessFactor" : 0.75
            }
        }
    ],
    "meshes" : [
        {
            "name" : "NurbsPath",
            "primitives" : [
                {
                    "attributes" : {
                        "POSITION" : 0,
                        "NORMAL" : 1,
                        "TEXCOORD_0" : 2
                    },
                    "indices" : 3,
                    "material" : 0
                }
            ]
        },
        {
            "name" : "Cube",
            "primitives" : [
                {
                    "attributes" : {
                        "POSITION" : 4,
                        "NORMAL" : 5,
                        "TEXCOORD_0" : 6
                    },
                    "indices" : 7,
                    "material" : 1
                }
            ]
        },
        {
            "name" : "Cube.004",
            "primitives" : [
                {
                    "attributes" : {
                        "POSITION" : 8,
                        "NORMAL" : 9,
                        "TEXCOORD_0" : 10
                    },
                    "indices" : 11,
                    "material" : 2
                }
            ]
        }
    ],
    "accessors" : [
        {
            "bufferView" : 0,
            "componentType" : 5126,
            "count" : 42,
            "max" : [
                1.1483287811279297,
                0.9200657606124878,
                1.0624003410339355
            ],
            "min" : [
                -2,
                -0.9200658202171326,
                -1.0624003410339355
            ],
            "type" : "VEC3"
        },
        {
            "bufferView" : 1,
            "componentType" : 5126,
            "count" : 42,
            "type" : "VEC3"
        },
        {
            "bufferView" : 2,
            "componentType" : 5126,
            "count" : 42,
            "type" : "VEC2"
        },
        {
            "bufferView" : 3,
            "componentType" : 5123,
            "count" : 180,
            "type" : "SCALAR"
        },
        {
            "bufferView" : 4,
            "componentType" : 5126,
            "count" : 40,
            "max" : [
                -4.335049629211426,
                0.6623521447181702,
                0.8430366516113281
            ],
            "min" : [
                -6.335049629211426,
                -1.3376479148864746,
                -1.1569633483886719
            ],
            "type" : "VEC3"
        },
        {
            "bufferView" : 5,
            "componentType" : 5126,
            "count" : 40,
            "type" : "VEC3"
        },
        {
            "bufferView" : 6,
            "componentType" : 5126,
            "count" : 40,
            "type" : "VEC2"
        },
        {
            "bufferView" : 7,
            "componentType" : 5123,
            "count" : 84,
            "type" : "SCALAR"
        },
        {
            "bufferView" : 8,
            "componentType" : 5126,
            "count" : 220,
            "max" : [
                1,
                1.294816255569458,
                1.298388123512268
            ],
            "min" : [
                -1,
                -1.3089159727096558,
                -1.298388123512268
            ],
            "type" : "VEC3"
        },
        {
            "bufferView" : 9,
            "componentType" : 5126,
            "count" : 220,
            "type" : "VEC3"
        },
        {
            "bufferView" : 10,
            "componentType" : 5126,
            "count" : 220,
            "type" : "VEC2"
        },
        {
            "bufferView" : 11,
            "componentType" : 5123,
            "count" : 348,
            "type" : "SCALAR"
        }
    ],
    "bufferViews" : [
        {
            "buffer" : 0,
            "byteLength" : 504,
            "byteOffset" : 0
        },
        {
            "buffer" : 0,
            "byteLength" : 504,
            "byteOffset" : 504
        },
        {
            "buffer" : 0,
            "byteLength" : 336,
            "byteOffset" : 1008
        },
        {
            "buffer" : 0,
            "byteLength" : 360,
            "byteOffset" : 1344
        },
        {
            "buffer" : 0,
            "byteLength" : 480,
            "byteOffset" : 1704
        },
        {
            "buffer" : 0,
            "byteLength" : 480,
            "byteOffset" : 2184
        },
        {
            "buffer" : 0,
            "byteLength" : 320,
            "byteOffset" : 2664
        },
        {
            "buffer" : 0,
            "byteLength" : 168,
            "byteOffset" : 2984
        },
        {
            "buffer" : 0,
            "byteLength" : 2640,
            "byteOffset" : 3152
        },
        {
            "buffer" : 0,
            "byteLength" : 2640,
            "byteOffset" : 5792
        },
        {
            "buffer" : 0,
            "byteLength" : 1760,
            "byteOffset" : 8432
        },
        {
            "buffer" : 0,
            "byteLength" : 696,
            "byteOffset" : 10192
        }
    ],
    "buffers" : [
        {
            "byteLength" : 10888,
            "uri" : "tank geometry.bin"
        }
    ]
}
